<svg width="2250" height="462" viewBox="0 0 2250 462" fill="none" xmlns="http://www.w3.org/2000/svg">
<line x1="166.765" y1="299.559" x2="250.765" y2="457.059" stroke="#D84949" stroke-width="21"/>
<line x1="241.5" y1="451.5" x2="2247" y2="451.5" stroke="#D84949" stroke-width="21"/>
<path d="M300.489 388H18.081L159.285 81.9145L300.489 388ZM43.05 372.071H275.52L159.285 119.798L43.05 372.071ZM356.985 88.372H372.914V273.487C372.914 292.429 377.649 309.936 387.12 326.008C396.591 342.08 409.363 354.851 425.435 364.322C441.507 373.793 459.014 378.529 477.956 378.529C496.898 378.529 514.405 373.793 530.477 364.322C546.549 354.851 559.32 342.08 568.791 326.008C578.262 309.936 582.998 292.429 582.998 273.487V88.372H598.926V273.487C598.926 295.299 593.473 315.532 582.567 334.188C571.661 352.555 556.881 367.192 538.226 378.098C519.858 389.004 499.768 394.458 477.956 394.458C456.144 394.458 435.91 389.004 417.255 378.098C398.887 367.192 384.25 352.555 373.344 334.188C362.438 315.532 356.985 295.299 356.985 273.487V88.372ZM917.597 88.372V104.3H804.376V388H788.878V104.3H675.656V88.372H917.597ZM1115.3 81.9145C1137.68 81.9145 1158.35 87.511 1177.29 98.704C1196.23 109.61 1211.16 124.534 1222.06 143.476C1233.25 162.418 1238.85 183.082 1238.85 205.468V270.904C1238.85 293.29 1233.25 313.954 1222.06 332.896C1211.16 351.838 1196.23 366.905 1177.29 378.098C1158.35 389.004 1137.68 394.458 1115.3 394.458C1092.91 394.458 1072.25 389.004 1053.31 378.098C1034.36 366.905 1019.3 351.838 1008.1 332.896C997.197 313.954 991.744 293.29 991.744 270.904V205.468C991.744 183.082 997.197 162.418 1008.1 143.476C1019.3 124.534 1034.36 109.61 1053.31 98.704C1072.25 87.511 1092.91 81.9145 1115.3 81.9145ZM1007.67 270.904C1007.67 290.42 1012.41 308.501 1021.88 325.147C1031.64 341.506 1044.7 354.564 1061.05 364.322C1077.7 373.793 1095.78 378.529 1115.3 378.529C1134.81 378.529 1152.75 373.793 1169.11 364.322C1185.76 354.564 1198.81 341.506 1208.29 325.147C1218.04 308.501 1222.92 290.42 1222.92 270.904V205.468C1222.92 185.952 1218.04 168.014 1208.29 151.655C1198.81 135.009 1185.76 121.951 1169.11 112.48C1152.75 102.722 1134.81 97.843 1115.3 97.843C1095.78 97.843 1077.7 102.722 1061.05 112.48C1044.7 121.951 1031.64 135.009 1021.88 151.655C1012.41 168.014 1007.67 185.952 1007.67 205.468V270.904Z" fill="white"/>
<path d="M1367.27 388H1351.34V88.372H1471.88C1491.97 88.372 1510.48 92.677 1527.41 101.287C1544.63 109.897 1558.27 122.094 1568.31 137.879C1578.36 153.664 1583.38 171.889 1583.38 192.553C1583.38 212.356 1578.21 230.58 1567.88 247.226C1557.84 263.872 1544.06 276.644 1526.55 285.541C1511.34 293.29 1493.12 297.164 1471.88 297.164H1367.27V388ZM1367.27 281.236H1471.88C1490.25 281.236 1505.32 278.366 1517.08 272.626C1532.29 265.451 1544.49 254.688 1553.67 240.338C1562.86 225.988 1567.45 210.06 1567.45 192.553C1567.45 175.333 1562.86 159.548 1553.67 145.198C1544.49 130.848 1532.15 120.085 1516.65 112.91C1504.88 107.17 1489.96 104.3 1471.88 104.3H1367.27V281.236ZM1666.14 88.372H1877.08V104.3H1682.06V225.701H1851.68V241.63H1682.06V372.071H1877.08V388H1666.14V88.372ZM2230.19 88.372L2149.69 388H2132.9L2088.13 221.396L2043.35 388H2026.57L1946.06 88.372H1962.42L2034.74 358.295L2079.95 190.831L2052.4 88.372H2068.75L2096.31 190.831L2141.51 358.295L2213.83 88.372H2230.19Z" fill="white"/>
<circle cx="157.5" cy="294" r="31.5" fill="#D84949"/>
</svg>
