<svg width="956" height="956" viewBox="0 0 956 956" fill="none" xmlns="http://www.w3.org/2000/svg">
<path d="M478 0L891.96 239V717L478 956L64.0399 717V239L478 0Z" fill="white"/>
<mask id="mask0" mask-type="alpha" maskUnits="userSpaceOnUse" x="64" y="0" width="828" height="956">
<path d="M478 0L891.96 239V717L478 956L64.0399 717V239L478 0Z" fill="white"/>
</mask>
<g mask="url(#mask0)">
<line x1="391.864" y1="541.93" x2="512.413" y2="778.179" stroke="#D84949" stroke-width="31.2715"/>
<path d="M498.486 769.58L880.127 768.007" stroke="#D84949" stroke-width="31.2715"/>
<circle cx="377.936" cy="533.401" r="46.9072" fill="#D84949"/>
<path d="M590.864 672.6H170.325L380.594 216.802L590.864 672.6ZM207.507 648.881H553.682L380.594 273.216L207.507 648.881Z" fill="black"/>
<path d="M597.178 528H584.316V286.07H681.644C697.866 286.07 712.813 289.546 726.485 296.498C740.389 303.45 751.396 313.299 759.507 326.044C767.617 338.79 771.673 353.505 771.673 370.19C771.673 386.179 767.502 400.894 759.159 414.335C751.049 427.775 739.925 438.087 725.79 445.271C713.508 451.528 698.793 454.656 681.644 454.656H597.178V528ZM597.178 441.795H681.644C696.475 441.795 708.641 439.478 718.142 434.843C730.424 429.05 740.273 420.36 747.688 408.773C755.104 397.187 758.812 384.325 758.812 370.19C758.812 356.286 755.104 343.54 747.688 331.954C740.273 320.367 730.308 311.677 717.795 305.884C708.294 301.249 696.244 298.932 681.644 298.932H597.178V441.795Z" fill="black"/>
</g>
</svg>
